<?xml version="1.0" encoding="utf-8"?>
<!-- Generator: Adobe Illustrator 16.0.0, SVG Export Plug-In . SVG Version: 6.00 Build 0)  -->
<!DOCTYPE svg PUBLIC "-//W3C//DTD SVG 1.1//EN" "http://www.w3.org/Graphics/SVG/1.1/DTD/svg11.dtd">
<svg version="1.1" id="Layer_1" xmlns="http://www.w3.org/2000/svg" xmlns:xlink="http://www.w3.org/1999/xlink" x="0px" y="0px"
	 width="375.918px" height="184.166px" viewBox="0 0 375.918 184.166" enable-background="new 0 0 375.918 184.166"
	 xml:space="preserve">
<g enable-background="new    ">
	<path fill="#FFFFFF" d="M31.58,40.225V15.268h11.065c2.225,0,3.916,0.225,5.073,0.673s2.083,1.24,2.775,2.375
		c0.692,1.135,1.039,2.389,1.039,3.762c0,1.771-0.573,3.263-1.72,4.478c-1.146,1.214-2.917,1.986-5.311,2.315
		c0.874,0.42,1.538,0.834,1.992,1.242c0.964,0.886,1.878,1.992,2.741,3.319l4.341,6.793h-4.154l-3.303-5.192
		c-0.965-1.498-1.759-2.645-2.383-3.438c-0.625-0.795-1.183-1.351-1.677-1.669c-0.494-0.317-0.996-0.538-1.507-0.663
		c-0.375-0.08-0.987-0.119-1.838-0.119h-3.831v11.082H31.58z M34.883,26.282h7.099c1.509,0,2.689-0.156,3.541-0.469
		c0.851-0.312,1.498-0.811,1.94-1.498c0.443-0.687,0.664-1.433,0.664-2.238c0-1.18-0.429-2.15-1.285-2.911
		c-0.857-0.76-2.21-1.141-4.061-1.141h-7.899V26.282z"/>
	<path fill="#FFFFFF" d="M56.775,40.225V15.268h18.045v2.945H60.078v7.644h13.806v2.928H60.078v8.495h15.321v2.945H56.775z"/>
	<path fill="#FFFFFF" d="M77.221,40.225l9.584-24.957h3.558l10.214,24.957h-3.762l-2.911-7.559H83.469l-2.741,7.559H77.221z
		 M84.422,29.977h8.461l-2.604-6.912c-0.794-2.1-1.385-3.824-1.771-5.175c-0.318,1.6-0.766,3.189-1.345,4.767L84.422,29.977z"/>
	<path fill="#FFFFFF" d="M103.081,40.225V15.268h3.302v22.012h12.292v2.945H103.081z"/>
</g>
<g enable-background="new    ">
	<path fill="#FFFFFF" d="M140.44,31.071l3.455,0.872c-0.724,2.838-2.027,5.002-3.909,6.491c-1.882,1.49-4.182,2.235-6.901,2.235
		c-2.813,0-5.102-0.573-6.865-1.719c-1.763-1.146-3.104-2.805-4.024-4.978c-0.92-2.173-1.38-4.506-1.38-6.999
		c0-2.718,0.52-5.09,1.558-7.114c1.039-2.024,2.517-3.562,4.435-4.612c1.917-1.051,4.027-1.576,6.331-1.576
		c2.612,0,4.808,0.665,6.589,1.994c1.781,1.33,3.021,3.2,3.722,5.61l-3.401,0.801c-0.605-1.899-1.484-3.282-2.636-4.149
		c-1.152-0.866-2.6-1.3-4.345-1.3c-2.006,0-3.684,0.481-5.031,1.442c-1.348,0.962-2.295,2.253-2.841,3.874
		c-0.546,1.62-0.819,3.292-0.819,5.013c0,2.221,0.323,4.158,0.97,5.814s1.653,2.895,3.019,3.713
		c1.365,0.819,2.843,1.229,4.435,1.229c1.935,0,3.573-0.559,4.915-1.674C139.057,34.924,139.965,33.268,140.44,31.071z"/>
	<path fill="#FFFFFF" d="M145.284,40.225l10.026-26.107h3.722l10.685,26.107h-3.936l-3.045-7.907H151.82l-2.867,7.907H145.284z
		 M152.817,29.504h8.851l-2.725-7.23c-0.832-2.196-1.449-4.001-1.852-5.414c-0.333,1.674-0.802,3.337-1.407,4.986L152.817,29.504z"
		/>
	<path fill="#FFFFFF" d="M172.442,40.225V14.117h3.544l13.713,20.498V14.117h3.313v26.107h-3.545l-13.712-20.516v20.516H172.442z"/>
	<path fill="#FFFFFF" d="M195.949,40.225l10.026-26.107h3.722l10.686,26.107h-3.936l-3.045-7.907h-10.917l-2.867,7.907H195.949z
		 M203.482,29.504h8.852l-2.725-7.23c-0.832-2.196-1.449-4.001-1.853-5.414c-0.333,1.674-0.802,3.337-1.407,4.986L203.482,29.504z"
		/>
	<path fill="#FFFFFF" d="M223.144,40.225V14.117h8.993c2.03,0,3.58,0.125,4.648,0.374c1.496,0.345,2.771,0.968,3.828,1.87
		c1.377,1.163,2.407,2.65,3.09,4.461c0.684,1.811,1.024,3.879,1.024,6.206c0,1.983-0.231,3.74-0.694,5.271s-1.057,2.799-1.781,3.802
		c-0.725,1.004-1.517,1.793-2.377,2.369c-0.861,0.576-1.9,1.012-3.117,1.309s-2.615,0.445-4.193,0.445H223.144z M226.598,37.144
		h5.574c1.722,0,3.072-0.16,4.052-0.48s1.761-0.771,2.342-1.354c0.819-0.819,1.458-1.921,1.915-3.304s0.686-3.06,0.686-5.031
		c0-2.73-0.449-4.828-1.345-6.295c-0.896-1.466-1.985-2.449-3.269-2.947c-0.926-0.356-2.416-0.534-4.469-0.534h-5.486V37.144z"/>
	<path fill="#FFFFFF" d="M250.07,40.225V14.117h3.455v26.107H250.07z"/>
	<path fill="#FFFFFF" d="M256.748,40.225l10.026-26.107h3.722l10.686,26.107h-3.936l-3.045-7.907h-10.917l-2.867,7.907H256.748z
		 M264.281,29.504h8.852l-2.725-7.23c-0.832-2.196-1.449-4.001-1.853-5.414c-0.333,1.674-0.802,3.337-1.407,4.986L264.281,29.504z"
		/>
	<path fill="#FFFFFF" d="M283.906,40.225V14.117h3.545l13.712,20.498V14.117h3.313v26.107h-3.544l-13.713-20.516v20.516H283.906z"/>
</g>
<g>
	<g>
		<defs>
			<path id="SVGID_1_" d="M142.421,55.867c-1.939,7.782-3.771,25.005-3.771,62.323c0,38.045,2.448,56.775,4.994,65.976h57.605
				c2.021-11.447,4.192-31.86,4.192-66.735c0-37.914-2.11-54.4-3.877-61.563H142.421z"/>
		</defs>
		<clipPath id="SVGID_2_">
			<use xlink:href="#SVGID_1_"  overflow="visible"/>
		</clipPath>
		
			<linearGradient id="SVGID_3_" gradientUnits="userSpaceOnUse" x1="-119.9058" y1="305.333" x2="-118.9058" y2="305.333" gradientTransform="matrix(0 -128.2989 128.2989 0 -39001.9531 -15199.6133)">
			<stop  offset="0" style="stop-color:#F3DC82"/>
			<stop  offset="0.0298" style="stop-color:#DEA55C"/>
			<stop  offset="0.4916" style="stop-color:#F3DC82"/>
			<stop  offset="1" style="stop-color:#DF7527"/>
		</linearGradient>
		<rect x="138.65" y="55.867" clip-path="url(#SVGID_2_)" fill="url(#SVGID_3_)" width="66.792" height="128.299"/>
	</g>
</g>
<g>
	<g>
		<defs>
			<path id="SVGID_4_" d="M20.985,55.867c0,0-20.985,6.643-20.985,64.608c0,57.967,23.847,63.689,23.847,63.689h49.402
				c-4.921-6.105-14.546-23.725-14.546-68.17c0-40.815,7.172-55.145,11.711-60.129L20.985,55.867L20.985,55.867z"/>
		</defs>
		<clipPath id="SVGID_5_">
			<use xlink:href="#SVGID_4_"  overflow="visible"/>
		</clipPath>
		
			<linearGradient id="SVGID_6_" gradientUnits="userSpaceOnUse" x1="-119.9058" y1="305.333" x2="-118.9058" y2="305.333" gradientTransform="matrix(0 -128.2989 128.2989 0 -39137.3281 -15199.6133)">
			<stop  offset="0" style="stop-color:#F3DC82"/>
			<stop  offset="0.0298" style="stop-color:#DEA55C"/>
			<stop  offset="0.4916" style="stop-color:#F3DC82"/>
			<stop  offset="1" style="stop-color:#DF7527"/>
		</linearGradient>
		<rect y="55.867" clip-path="url(#SVGID_5_)" fill="url(#SVGID_6_)" width="73.249" height="128.299"/>
	</g>
</g>
<g>
	<g>
		<defs>
			<path id="SVGID_7_" d="M77.455,55.867c-5.68,8.632-12.343,25.994-12.343,59.961c0,44.303,10.39,62.157,15.619,68.338h55.156
				c-2.663-9.974-5.333-29.119-5.333-65.808c0-38.346,1.991-55.166,3.886-62.491H77.455z"/>
		</defs>
		<clipPath id="SVGID_8_">
			<use xlink:href="#SVGID_7_"  overflow="visible"/>
		</clipPath>
		
			<linearGradient id="SVGID_9_" gradientUnits="userSpaceOnUse" x1="-119.9058" y1="305.333" x2="-118.9058" y2="305.333" gradientTransform="matrix(0 -128.2989 128.2989 0 -39073.4531 -15199.6133)">
			<stop  offset="0" style="stop-color:#F3DC82"/>
			<stop  offset="0.0298" style="stop-color:#DEA55C"/>
			<stop  offset="0.4916" style="stop-color:#F3DC82"/>
			<stop  offset="1" style="stop-color:#DF7527"/>
		</linearGradient>
		<rect x="65.112" y="55.867" clip-path="url(#SVGID_8_)" fill="url(#SVGID_9_)" width="70.775" height="128.299"/>
	</g>
</g>
<g>
	<g>
		<defs>
			<path id="SVGID_10_" d="M209.417,55.867c2.283,10.008,4.289,28.062,4.289,60.636c0,39.973-1.794,58.795-3.483,67.663h53.237
				c7.786-8.374,15.519-25.58,15.519-60.917c0-42.928-6.012-60.327-10.782-67.382H209.417z"/>
		</defs>
		<clipPath id="SVGID_11_">
			<use xlink:href="#SVGID_10_"  overflow="visible"/>
		</clipPath>
		
			<linearGradient id="SVGID_12_" gradientUnits="userSpaceOnUse" x1="-119.9058" y1="305.333" x2="-118.9058" y2="305.333" gradientTransform="matrix(0 -128.2989 128.2989 0 -38929.7031 -15199.6133)">
			<stop  offset="0" style="stop-color:#F3DC82"/>
			<stop  offset="0.0298" style="stop-color:#DEA55C"/>
			<stop  offset="0.4916" style="stop-color:#F3DC82"/>
			<stop  offset="1" style="stop-color:#DF7527"/>
		</linearGradient>
		<rect x="209.417" y="55.867" clip-path="url(#SVGID_11_)" fill="url(#SVGID_12_)" width="69.562" height="128.299"/>
	</g>
</g>
<g>
	<g>
		<defs>
			<rect id="SVGID_13_" width="375.918" height="184.166"/>
		</defs>
		<clipPath id="SVGID_14_">
			<use xlink:href="#SVGID_13_"  overflow="visible"/>
		</clipPath>
		<path clip-path="url(#SVGID_14_)" fill="#A0A0A0" d="M355.842,83.105h-27.313c4.444,6.005,5.165,13.989,5.767,38.578
			c0.476,19.428-3.268,29.981-6.243,35.246h25.32c0,0,14.545-5.412,14.545-41.128C367.917,89.965,355.842,83.105,355.842,83.105"/>
	</g>
	<g>
		<defs>
			<rect id="SVGID_15_" width="375.918" height="184.166"/>
		</defs>
		<clipPath id="SVGID_16_">
			<use xlink:href="#SVGID_15_"  overflow="visible"/>
		</clipPath>
		<path clip-path="url(#SVGID_16_)" d="M14.125,136.06c-3.931-2.834-6.063-6.99-6.396-12.472h16.865
			c0.238,2.908,1.525,4.36,3.86,4.36c0.857,0,1.583-0.202,2.179-0.608c0.595-0.403,0.893-1.036,0.893-1.893
			c0-1.191-0.643-2.156-1.929-2.896c-1.286-0.737-3.287-1.583-6.003-2.536c-3.24-1.144-5.92-2.263-8.04-3.357
			c-2.12-1.098-3.943-2.692-5.467-4.788c-1.525-2.097-2.263-4.789-2.215-8.076c0-3.287,0.845-6.086,2.537-8.397
			c1.691-2.31,4.002-4.061,6.932-5.25c2.93-1.19,6.228-1.787,9.898-1.787c6.192,0,11.112,1.43,14.757,4.288
			c3.645,2.858,5.562,6.887,5.753,12.078h-17.08c-0.048-1.43-0.405-2.453-1.072-3.072c-0.668-0.618-1.477-0.93-2.43-0.93
			c-0.667,0-1.215,0.228-1.644,0.678c-0.428,0.455-0.643,1.086-0.643,1.896c0,1.144,0.631,2.084,1.894,2.823
			c1.262,0.738,3.275,1.632,6.038,2.679c3.192,1.192,5.825,2.335,7.897,3.431c2.073,1.099,3.871,2.621,5.396,4.573
			c1.524,1.954,2.287,4.408,2.287,7.362c0,3.097-0.763,5.872-2.287,8.324c-1.525,2.453-3.741,4.373-6.646,5.754
			c-2.907,1.383-6.36,2.07-10.362,2.07C23.046,140.312,18.056,138.894,14.125,136.06"/>
	</g>
	<g>
		<defs>
			<rect id="SVGID_17_" width="375.918" height="184.166"/>
		</defs>
		<clipPath id="SVGID_18_">
			<use xlink:href="#SVGID_17_"  overflow="visible"/>
		</clipPath>
		<polygon clip-path="url(#SVGID_18_)" points="101.779,127.806 117.072,127.806 117.072,139.812 85.914,139.812 85.914,89.214 
			101.779,89.214 		"/>
	</g>
	<g>
		<defs>
			<rect id="SVGID_19_" width="375.918" height="184.166"/>
		</defs>
		<clipPath id="SVGID_20_">
			<use xlink:href="#SVGID_19_"  overflow="visible"/>
		</clipPath>
		<path clip-path="url(#SVGID_20_)" d="M159.004,136.953c-3.978-2.24-7.135-5.335-9.469-9.29c-2.335-3.954-3.502-8.409-3.502-13.365
			c0-4.954,1.167-9.408,3.502-13.363c2.334-3.953,5.491-7.039,9.469-9.254c3.977-2.215,8.349-3.323,13.113-3.323
			c4.764,0,9.123,1.108,13.079,3.323c3.955,2.215,7.086,5.301,9.397,9.254c2.312,3.955,3.466,8.409,3.466,13.363
			c0,4.956-1.154,9.411-3.466,13.365c-2.311,3.955-5.456,7.05-9.434,9.29c-3.978,2.239-8.325,3.356-13.042,3.356
			C167.353,140.312,162.981,139.192,159.004,136.953 M179.407,122.479c1.715-2.022,2.573-4.752,2.573-8.183
			c0-3.476-0.858-6.229-2.573-8.254c-1.715-2.024-4.145-3.037-7.29-3.037c-3.192,0-5.645,1.013-7.36,3.037
			c-1.715,2.024-2.573,4.778-2.573,8.254c0,3.431,0.858,6.159,2.573,8.183c1.715,2.025,4.168,3.037,7.36,3.037
			C175.262,125.519,177.692,124.506,179.407,122.479"/>
	</g>
	<g>
		<defs>
			<rect id="SVGID_21_" width="375.918" height="184.166"/>
		</defs>
		<clipPath id="SVGID_22_">
			<use xlink:href="#SVGID_21_"  overflow="visible"/>
		</clipPath>
		<polygon clip-path="url(#SVGID_22_)" points="267.166,89.214 267.166,101.792 253.729,101.792 253.729,139.812 237.866,139.812 
			237.866,101.792 224.574,101.792 224.574,89.214 		"/>
	</g>
	<g>
		<defs>
			<rect id="SVGID_23_" width="375.918" height="184.166"/>
		</defs>
		<clipPath id="SVGID_24_">
			<use xlink:href="#SVGID_23_"  overflow="visible"/>
		</clipPath>
		<polygon clip-path="url(#SVGID_24_)" fill="#777777" points="354.769,88.357 359.425,27.934 331.204,27.934 338.565,88.357 		"/>
	</g>
</g>
<g>
	<g>
		<defs>
			<path id="SVGID_25_" d="M276.378,55.867c7.728,10.437,8.978,24.312,10.022,67.045c0.824,33.762-5.68,52.103-10.852,61.254h44.005
				c0,0,25.278-9.407,25.278-71.476c0-44.899-20.986-56.823-20.986-56.823H276.378z"/>
		</defs>
		<clipPath id="SVGID_26_">
			<use xlink:href="#SVGID_25_"  overflow="visible"/>
		</clipPath>
		
			<linearGradient id="SVGID_27_" gradientUnits="userSpaceOnUse" x1="-119.9058" y1="305.333" x2="-118.9058" y2="305.333" gradientTransform="matrix(0 -128.2989 128.2989 0 -38863.7031 -15199.6133)">
			<stop  offset="0" style="stop-color:#F3DC82"/>
			<stop  offset="0.0298" style="stop-color:#DEA55C"/>
			<stop  offset="0.4916" style="stop-color:#F3DC82"/>
			<stop  offset="1" style="stop-color:#DF7527"/>
		</linearGradient>
		<rect x="275.55" y="55.867" clip-path="url(#SVGID_26_)" fill="url(#SVGID_27_)" width="69.283" height="128.299"/>
	</g>
</g>
<g>
	<g>
		<defs>
			<rect id="SVGID_28_" width="375.918" height="184.166"/>
		</defs>
		<clipPath id="SVGID_29_">
			<use xlink:href="#SVGID_28_"  overflow="visible"/>
		</clipPath>
		<path clip-path="url(#SVGID_29_)" d="M301.146,136.06c-3.931-2.834-6.063-6.99-6.396-12.472h16.865
			c0.236,2.908,1.523,4.36,3.858,4.36c0.857,0,1.583-0.202,2.18-0.608c0.596-0.403,0.894-1.036,0.894-1.893
			c0-1.191-0.644-2.156-1.929-2.896c-1.286-0.737-3.287-1.583-6.003-2.536c-3.24-1.144-5.921-2.263-8.04-3.357
			c-2.12-1.098-3.943-2.692-5.469-4.788c-1.523-2.097-2.262-4.789-2.215-8.076c0-3.287,0.846-6.086,2.537-8.397
			c1.691-2.31,4.002-4.061,6.932-5.25c2.932-1.19,6.229-1.787,9.898-1.787c6.192,0,11.112,1.43,14.757,4.288
			c3.646,2.858,5.563,6.887,5.753,12.078H317.69c-0.049-1.43-0.404-2.453-1.071-3.072c-0.668-0.618-1.479-0.93-2.431-0.93
			c-0.667,0-1.216,0.228-1.645,0.678c-0.429,0.455-0.644,1.086-0.644,1.896c0,1.144,0.631,2.084,1.895,2.823
			c1.262,0.738,3.274,1.632,6.038,2.679c3.191,1.192,5.825,2.335,7.896,3.431c2.073,1.099,3.871,2.621,5.396,4.573
			c1.523,1.954,2.287,4.408,2.287,7.362c0,3.097-0.764,5.872-2.287,8.324c-1.525,2.453-3.741,4.373-6.646,5.754
			c-2.906,1.383-6.358,2.07-10.36,2.07C310.068,140.312,305.079,138.894,301.146,136.06"/>
	</g>
</g>
<g>
	<g>
		<defs>
			<circle id="SVGID_30_" cx="347.985" cy="27.934" r="27.934"/>
		</defs>
		<clipPath id="SVGID_31_">
			<use xlink:href="#SVGID_30_"  overflow="visible"/>
		</clipPath>
		
			<radialGradient id="SVGID_32_" cx="-113.333" cy="315.2793" r="1" gradientTransform="matrix(27.9334 0 0 27.9334 3513.7634 -8778.873)" gradientUnits="userSpaceOnUse">
			<stop  offset="0" style="stop-color:#F3DC82"/>
			<stop  offset="1" style="stop-color:#DF7527"/>
		</radialGradient>
		<rect x="320.051" clip-path="url(#SVGID_31_)" fill="url(#SVGID_32_)" width="55.867" height="55.867"/>
	</g>
</g>
</svg>
