<?xml version="1.0" encoding="utf-8"?>
<!-- Generator: Adobe Illustrator 16.0.0, SVG Export Plug-In . SVG Version: 6.00 Build 0)  -->
<!DOCTYPE svg PUBLIC "-//W3C//DTD SVG 1.1//EN" "http://www.w3.org/Graphics/SVG/1.1/DTD/svg11.dtd">
<svg version="1.1" id="Layer_1" xmlns="http://www.w3.org/2000/svg" xmlns:xlink="http://www.w3.org/1999/xlink" x="0px" y="0px"
	 width="122.879px" height="103.609px" viewBox="0 0 122.879 103.609" enable-background="new 0 0 122.879 103.609"
	 xml:space="preserve">
<g>
	<defs>
		<rect id="SVGID_1_" width="122.879" height="103.609"/>
	</defs>
	<clipPath id="SVGID_2_">
		<use xlink:href="#SVGID_1_"  overflow="visible"/>
	</clipPath>
	<path clip-path="url(#SVGID_2_)" fill="#FFFFFF" d="M10.368,0h102.144c5.703,0,10.367,4.665,10.367,10.367
		c0,5.702-4.664,10.368-10.367,10.368H10.368C4.666,20.735,0,16.07,0,10.368C0,4.665,4.666,0,10.368,0 M10.368,82.875h102.144
		c5.703,0,10.367,4.665,10.367,10.367s-4.664,10.367-10.367,10.367H10.368C4.666,103.609,0,98.944,0,93.242
		S4.666,82.875,10.368,82.875 M30.368,41.438h82.144c5.703,0,10.367,4.665,10.367,10.367c0,5.703-4.664,10.369-10.367,10.369H30.368
		C24.666,62.173,20,57.507,20,51.805C20,46.103,24.666,41.438,30.368,41.438"/>
</g>
</svg>
